<svg width="206" height="248" viewBox="0 0 206 248" fill="none" xmlns="http://www.w3.org/2000/svg">
    <path opacity="0.04" d="M14.0299 248V197.777L100.605 116.726C106.08 111.415 110.072 106.797 112.581 102.871C115.319 98.946 117.144 95.4823 118.056 92.4804C118.969 89.2477 119.425 86.2458 119.425 83.4749C119.425 77.4711 117.486 72.8529 113.608 69.6201C109.73 66.1564 103.913 64.4246 96.1561 64.4246C89.0842 64.4246 82.3544 66.3873 75.9668 70.3129C69.5792 74.0075 64.5603 79.5493 60.9103 86.9385L0 56.1117C8.66888 39.486 21.6722 25.9776 39.01 15.5866C56.3477 5.19553 77.9059 0 103.684 0C122.619 0 139.386 3.11732 153.987 9.35196C168.587 15.5866 179.993 24.3613 188.206 35.676C196.419 46.9907 200.525 60.3836 200.525 75.8548C200.525 83.7058 199.498 91.5568 197.445 99.4078C195.62 107.259 191.742 115.572 185.811 124.346C179.879 132.89 171.096 142.473 159.462 153.095L94.4452 213.017L81.784 184.615H206V248H14.0299Z" fill="black"/>
    </svg>
    