<svg width="206" height="248" viewBox="0 0 206 248" fill="none" xmlns="http://www.w3.org/2000/svg">
    <path opacity="0.04" d="M95.396 248C78.8054 248 61.9843 246.153 44.9329 242.458C27.8814 238.764 12.9038 233.337 0 226.179L27.651 165.911C38.0201 171.914 48.8501 176.417 60.1409 179.419C71.6622 182.19 82.4922 183.575 92.6309 183.575C101.848 183.575 109.337 182.075 115.097 179.073C121.088 175.84 124.084 171.106 124.084 164.872C124.084 159.561 121.895 155.52 117.517 152.749C113.139 149.747 105.765 148.246 95.396 148.246H63.2517V98.0224L125.812 34.2905L133.07 61.6536H12.443V0H192.866V50.2235L130.305 113.955L91.2483 91.7877H112.678C143.094 91.7877 166.252 98.5996 182.151 112.223C198.05 125.847 206 143.397 206 164.872C206 178.726 202.083 192.004 194.248 204.704C186.644 217.404 174.662 227.795 158.302 235.877C142.172 243.959 121.204 248 95.396 248Z" fill="black"/>
    </svg>
    