<svg width="60" height="60" viewBox="0 0 60 60" fill="none" xmlns="http://www.w3.org/2000/svg">
    <rect width="60" height="60" rx="12" fill="white" fill-opacity="0.04" />
    <rect x="0.5" y="0.5" width="59" height="59" rx="11.5" stroke="url(#paint0_linear_484_328)"
        stroke-opacity="0.16" />
    <path
        d="M38.8633 23.7846C38.3029 24.0416 37.6032 23.8671 37.3022 23.3973C36.9976 22.9244 37.2044 22.3341 37.7649 22.0802C40.4131 20.8677 41.647 19.2998 41.8952 17.7668C42.0269 16.948 41.8764 16.1259 41.5115 15.3642C41.1391 14.593 40.5486 13.8915 39.8 13.3266C38.3442 12.2284 36.3017 11.6508 34.1688 12.0983C33.3036 12.2792 32.555 12.6442 31.9005 13.1584C31.2046 13.7043 30.6027 14.4184 30.0761 15.2626C29.7789 15.7387 29.083 15.9196 28.5225 15.6721C27.9583 15.4213 27.7439 14.8342 28.0373 14.3613C28.6843 13.3266 29.4404 12.4379 30.3357 11.7333C31.2723 11.0001 32.3594 10.4732 33.6234 10.2098C36.5574 9.59724 39.3524 10.378 41.3385 11.8761C42.3466 12.6378 43.1479 13.5868 43.6519 14.6342C44.1597 15.6911 44.3666 16.8528 44.1748 18.0303C43.8325 20.1314 42.2375 22.2389 38.8633 23.7846ZM30.0385 31.4559C25.675 26.5109 25.5696 21.8263 30.8661 17.4717L27.0517 15.6943C23.9973 14.6913 18.3924 22.0833 20.5591 24.0575L23.5308 27.7773L22.9177 28.8564C22.7484 29.177 22.9139 29.4024 23.3277 29.5579L23.7302 29.6499L16 42.5582L17.5648 45.3734L20.6945 44.5958L21.4995 43.2755L20.7284 42.0567L22.4287 41.7488L22.8236 41.1013L21.9359 39.9587L22.5189 39.0034L24.2155 38.8225L24.7684 37.9179L23.8205 36.8737L24.4261 35.8834L26.1565 35.6454L28.5113 31.8526L28.91 32.0367C29.6021 32.3922 29.9595 32.1636 30.0385 31.4559ZM38.2502 34.5568L37.0991 38.1814L35.5004 38.7146L35.1656 39.7715L36.3317 40.6062L36.0271 41.5679L34.4472 42.0376L34.1237 43.0533L35.2559 43.9896L35.0377 44.6783L33.4842 45.2718L34.5224 46.3034L34.0748 47.7094L31.2723 49.0012L29.083 46.5795L33.2585 33.43L32.2466 33.2015C32.0397 33.1539 31.9118 32.973 31.9682 32.7952L32.3933 31.459C29.3313 29.5007 27.8154 26.111 28.8686 22.788C30.2228 18.5191 35.3311 15.9419 40.3943 16.9004C40.4169 17.1289 40.4131 17.3606 40.3755 17.5923C40.2815 18.1699 39.9843 18.7635 39.4351 19.3379C39.3599 19.4141 39.2809 19.4934 39.1981 19.5696C37.5806 19.4808 36.0647 20.3631 35.6283 21.7342C35.4402 22.3246 35.4816 22.9213 35.7035 23.4576C35.7562 23.6481 35.8427 23.8322 35.9556 24.0131C36.2227 24.4257 36.6139 24.7399 37.0728 24.9399C37.3737 25.1081 37.7123 25.235 38.0772 25.3207C39.894 25.7302 41.7561 24.8478 42.2977 23.3402C42.8469 22.9308 43.3247 22.4991 43.7347 22.0548C44.5322 21.1883 45.0776 20.2679 45.4011 19.3316C47.5979 21.3311 48.5646 24.2099 47.6656 27.041C46.6123 30.364 43.2833 32.6619 39.4765 33.065L39.0514 34.4012C38.995 34.5758 38.7806 34.6837 38.5699 34.6361L38.2502 34.5568Z"
        fill="white" />
    <defs>
        <linearGradient id="paint0_linear_484_328" x1="30" y1="0" x2="30" y2="60"
            gradientUnits="userSpaceOnUse">
            <stop stop-color="white" />
            <stop offset="1" stop-color="white" stop-opacity="0.12" />
        </linearGradient>
    </defs>
</svg>
    