<svg width="81" height="211" viewBox="0 0 81 211" fill="none" xmlns="http://www.w3.org/2000/svg">
    <path
        d="M25.5807 208.905C25.909 209.349 25.8153 209.976 25.3712 210.304C24.9271 210.632 24.301 210.539 23.9726 210.095L25.5807 208.905ZM80.3833 6.20515C80.8223 6.5403 80.9064 7.16783 80.5713 7.60681L75.11 14.7604C74.7748 15.1994 74.1473 15.2836 73.7083 14.9484C73.2693 14.6133 73.1851 13.9857 73.5203 13.5468L78.3748 7.18803L72.0161 2.3335C71.5771 1.99837 71.4929 1.37082 71.828 0.931839C72.1632 0.492859 72.7907 0.408676 73.2297 0.74382L80.3833 6.20515ZM23.9726 210.095C1.57928 179.812 -5.17203 131.622 3.91562 89.67C13.0021 47.7238 38.0414 11.5896 79.6435 6.00888L79.9094 7.99112C39.5114 13.4104 14.8727 48.5351 5.87028 90.0934C-3.131 131.646 3.61782 179.205 25.5807 208.905L23.9726 210.095Z"
        fill="url(#paint0_linear_13_1570)" />
    <defs>
        <linearGradient id="paint0_linear_13_1570" x1="-19" y1="146" x2="36.1123" y2="7.44242"
            gradientUnits="userSpaceOnUse">
            <stop stop-color="#04D404" stop-opacity="0" />
            <stop offset="1" stop-color="#04D404" />
        </linearGradient>
    </defs>
</svg>
    