<svg width="20" height="20" viewBox="0 0 20 20" fill="none" xmlns="http://www.w3.org/2000/svg">
    <g opacity="0.992">
        <path fill-rule="evenodd" clip-rule="evenodd"
            d="M9.14062 0C9.71355 0 10.2864 0 10.8594 0C14.776 0.489875 17.569 2.52113 19.2383 6.09375C19.6405 7.0775 19.8944 8.09313 20 9.14062C20 9.71355 20 10.2864 20 10.8594C19.5101 14.776 17.4789 17.569 13.9062 19.2383C12.9225 19.6405 11.9069 19.8944 10.8594 20C10.2864 20 9.71355 20 9.14062 20C5.22398 19.5101 2.43102 17.4789 0.761719 13.9062C0.359529 12.9225 0.105622 11.9069 0 10.8594C0 10.2864 0 9.71355 0 9.14062C0.489875 5.22398 2.52113 2.43102 6.09375 0.761719C7.0775 0.359529 8.09313 0.105622 9.14062 0ZM14.6875 5.66406C15.4944 5.67012 15.8786 6.07379 15.8398 6.875C15.7985 6.9968 15.7464 7.11398 15.6836 7.22656C13.4602 9.48906 11.2011 11.7091 8.90625 13.8867C8.54512 14.039 8.20656 14 7.89062 13.7695C6.75781 12.7409 5.625 11.7122 4.49219 10.6836C4.02352 10.1753 4.02352 9.66746 4.49219 9.16016C4.91742 8.86551 5.33406 8.87855 5.74219 9.19922C6.64062 10.0261 7.53906 10.8529 8.4375 11.6797C10.3836 9.75313 12.3237 7.81953 14.2578 5.87891C14.3941 5.78469 14.5374 5.71309 14.6875 5.66406Z"
            fill="white" />
        <path fill-rule="evenodd" clip-rule="evenodd"
            d="M9.14062 0C9.71355 0 10.2864 0 10.8594 0C14.776 0.489875 17.569 2.52113 19.2383 6.09375C19.6405 7.0775 19.8944 8.09313 20 9.14062C20 9.71355 20 10.2864 20 10.8594C19.5101 14.776 17.4789 17.569 13.9062 19.2383C12.9225 19.6405 11.9069 19.8944 10.8594 20C10.2864 20 9.71355 20 9.14062 20C5.22398 19.5101 2.43102 17.4789 0.761719 13.9062C0.359529 12.9225 0.105622 11.9069 0 10.8594C0 10.2864 0 9.71355 0 9.14062C0.489875 5.22398 2.52113 2.43102 6.09375 0.761719C7.0775 0.359529 8.09313 0.105622 9.14062 0ZM14.6875 5.66406C15.4944 5.67012 15.8786 6.07379 15.8398 6.875C15.7985 6.9968 15.7464 7.11398 15.6836 7.22656C13.4602 9.48906 11.2011 11.7091 8.90625 13.8867C8.54512 14.039 8.20656 14 7.89062 13.7695C6.75781 12.7409 5.625 11.7122 4.49219 10.6836C4.02352 10.1753 4.02352 9.66746 4.49219 9.16016C4.91742 8.86551 5.33406 8.87855 5.74219 9.19922C6.64062 10.0261 7.53906 10.8529 8.4375 11.6797C10.3836 9.75313 12.3237 7.81953 14.2578 5.87891C14.3941 5.78469 14.5374 5.71309 14.6875 5.66406Z"
            fill="url(#paint0_linear_34_335)" />
    </g>
    <defs>
        <linearGradient id="paint0_linear_34_335" x1="1.08197" y1="-1.66667" x2="19.968"
            y2="-0.737151" gradientUnits="userSpaceOnUse">
            <stop stop-color="#04D404" />
            <stop offset="1" stop-color="#026E02" />
        </linearGradient>
    </defs>
</svg>
    