<svg width="20" height="20" viewBox="0 0 20 20" fill="none" xmlns="http://www.w3.org/2000/svg">
    <path opacity="0.992" fill-rule="evenodd" clip-rule="evenodd"
        d="M9.12109 -0.0195312C9.69402 -0.0195312 10.2669 -0.0195312 10.8398 -0.0195312C14.3351 0.376159 16.9718 2.08189 18.75 5.09766C19.4333 6.36043 19.8434 7.70156 19.9805 9.12109C19.9805 9.69402 19.9805 10.2669 19.9805 10.8398C19.5848 14.3351 17.8791 16.9718 14.8633 18.75C13.6005 19.4333 12.2594 19.8434 10.8398 19.9805C10.2669 19.9805 9.69402 19.9805 9.12109 19.9805C5.62586 19.5848 2.98913 17.8791 1.21094 14.8633C0.527664 13.6005 0.117506 12.2594 -0.0195312 10.8398C-0.0195312 10.2539 -0.0195312 9.66797 -0.0195312 9.08203C0.335784 5.92863 1.80714 3.44815 4.39453 1.64062C5.83676 0.702016 7.41227 0.148629 9.12109 -0.0195312ZM6.23047 5.64453C6.50285 5.60687 6.75027 5.66547 6.97266 5.82031C7.9693 6.82348 8.97188 7.81957 9.98047 8.80859C10.9891 7.81957 11.9916 6.82348 12.9883 5.82031C13.3982 5.56164 13.7823 5.59422 14.1406 5.91797C14.375 6.26953 14.375 6.62109 14.1406 6.97266C13.1375 7.9693 12.1414 8.97188 11.1523 9.98047C12.1414 10.9891 13.1375 11.9916 14.1406 12.9883C14.3993 13.3982 14.3667 13.7823 14.043 14.1406C13.6914 14.375 13.3398 14.375 12.9883 14.1406C11.9916 13.1375 10.9891 12.1414 9.98047 11.1523C8.97188 12.1414 7.9693 13.1375 6.97266 14.1406C6.56277 14.3993 6.17867 14.3667 5.82031 14.043C5.58594 13.6914 5.58594 13.3398 5.82031 12.9883C6.82348 11.9916 7.81957 10.9891 8.80859 9.98047C7.77938 8.94477 6.75727 7.90309 5.74219 6.85547C5.52039 6.28949 5.68313 5.88586 6.23047 5.64453Z"
        fill="white"></path>
</svg>