<?xml version="1.0" encoding="UTF-8"?>
<svg id="_Слой_1" data-name="Слой 1" xmlns="http://www.w3.org/2000/svg" viewBox="0 0 50 50">
  <defs>
    <style>
      .cls-1 {
        fill: none;
        stroke: #000;
        stroke-linecap: round;
        stroke-linejoin: round;
        stroke-width: 5px;
      }
    </style>
  </defs>
  <path class="cls-1" d="m12.5,47.5h25m-27-10h29c2.8,0,4.2,0,5.27-.54.94-.48,1.71-1.24,2.19-2.19.54-1.07.54-2.47.54-5.27V10.5c0-2.8,0-4.2-.54-5.27-.48-.94-1.24-1.71-2.19-2.19-1.07-.55-2.47-.55-5.27-.55H10.5c-2.8,0-4.2,0-5.27.55-.94.48-1.71,1.24-2.19,2.19-.55,1.07-.55,2.47-.55,5.27v19c0,2.8,0,4.2.55,5.27.48.94,1.24,1.71,2.19,2.19,1.07.54,2.47.54,5.27.54Z"/>
</svg>