<svg width="60" height="60" viewBox="0 0 60 60" fill="none" xmlns="http://www.w3.org/2000/svg">
    <rect width="60" height="60" rx="12" fill="white" fill-opacity="0.04"/>
    <rect x="0.5" y="0.5" width="59" height="59" rx="11.5" stroke="url(#paint0_linear_484_316)" stroke-opacity="0.16"/>
    <path d="M26.4732 30.2173L26.388 30.4014L26.8172 30.6023L26.8175 30.6003L26.9038 30.0178L26.7074 30.1088L26.6932 30.1154L26.4732 30.2173ZM24.1381 24.8161C24.1647 24.6742 24.2054 24.5344 24.2604 24.3993C24.3429 24.6282 24.46 24.8707 24.6033 25.1075C24.4249 25.0125 24.27 24.9125 24.1381 24.8161ZM25.2314 25.91C25.1257 25.8105 25.0127 25.686 24.8961 25.535L25.0935 26.8674L25.095 26.8778L25.1107 26.9835C25.1356 26.984 25.1604 26.9899 25.1835 27.0013C25.1995 27.0092 25.2154 27.0169 25.2314 27.0242C25.3126 27.0614 25.3934 27.0903 25.4733 27.1107L25.7568 27.0759L25.7707 27.0742L25.9235 27.0554L25.9198 26.9791L25.9195 26.9723L25.8831 26.2205H25.7707C25.7662 26.2205 25.7615 26.2203 25.7568 26.2201C25.7111 26.2174 25.6567 26.2021 25.5954 26.1735C25.5942 26.1729 25.593 26.1724 25.5918 26.1718C25.4887 26.123 25.366 26.0368 25.2314 25.91ZM24.7274 26.7404C24.4801 26.4931 24.3061 26.1987 24.2052 25.885C24.203 25.8781 24.2008 25.8712 24.1986 25.8642C24.1863 25.8247 24.1752 25.7848 24.1652 25.7447L24.7529 25.3386L24.7274 26.7404ZM25.9328 26.974L25.894 26.2205H25.9792H25.9837H26.008H26.232H26.4254L26.232 26.8406L26.1805 27.0055L26.1788 27.0109L26.1746 27.0246L26.0171 27.0439L26.0115 27.0446L26.008 27.045L25.9369 27.0538L25.9331 26.9808L25.9328 26.974ZM26.232 26.8622L26.4312 26.2205H26.6932C26.6978 26.2205 26.7026 26.2203 26.7074 26.2201C26.7532 26.2174 26.8076 26.202 26.869 26.1733C26.8697 26.173 26.8704 26.1727 26.8711 26.1723C26.9692 26.1261 27.0851 26.0459 27.2122 25.9291L27.4512 26.3235L27.4064 26.626C27.3259 26.6715 27.2438 26.7155 27.1603 26.758C27.1601 26.7581 27.1599 26.7582 27.1597 26.7583C27.0218 26.8285 26.8798 26.8945 26.7343 26.9559L26.7074 26.9592L26.6932 26.9609L26.254 27.0148L26.2322 27.0175L26.232 27.0175L26.1818 27.0237L26.1855 27.0118L26.1872 27.0063L26.232 26.8622ZM27.4723 26.1811L27.2761 25.868C27.3692 25.7761 27.4673 25.6653 27.5681 25.5348L27.4723 26.1811ZM26.232 27.1438C26.2281 27.145 26.2243 27.1463 26.2204 27.1475H26.1434L26.1801 27.0292L26.232 27.023L26.255 27.0203L26.2767 27.0177L26.6932 26.9683L26.7074 26.9667L26.7089 26.9665C26.7084 26.9667 26.7079 26.9669 26.7074 26.9671C26.7027 26.9691 26.6979 26.9711 26.6932 26.973C26.6316 26.9985 26.5693 27.0231 26.5064 27.0469C26.5036 27.048 26.5007 27.0491 26.4978 27.0501C26.4104 27.0831 26.3217 27.1143 26.232 27.1438ZM26.1729 27.03L26.1362 27.1475H26.0213H26.0156H26.008H25.9417L25.9371 27.058L26.008 27.0496L26.0117 27.0491L26.0173 27.0485L26.1729 27.03ZM25.9237 27.0596L25.928 27.1475H25.7707H25.7568C25.666 27.1475 25.5733 27.1357 25.4794 27.1122L25.7568 27.0793L25.7707 27.0777L25.9237 27.0596ZM28.2216 24.3477C28.2677 24.4527 28.3049 24.5618 28.3331 24.6747C28.223 24.7713 28.0911 24.8743 27.9376 24.9753C28.0562 24.7632 28.1529 24.5495 28.2216 24.3477Z" stroke="white" stroke-width="13"/>
    <defs>
    <linearGradient id="paint0_linear_484_316" x1="30" y1="0" x2="30" y2="60" gradientUnits="userSpaceOnUse">
    <stop stop-color="white"/>
    <stop offset="1" stop-color="white" stop-opacity="0.12"/>
    </linearGradient>
    </defs>
    </svg>
    