<svg width="472" height="358" viewBox="0 0 472 358" fill="none" xmlns="http://www.w3.org/2000/svg">
	<rect width="472" height="358" rx="20" fill="url(#paint0_linear_13_250)" fill-opacity="0.04"/>
	<rect x="0.5" y="0.5" width="471" height="357" rx="19.5" stroke="url(#paint1_linear_13_250)" stroke-opacity="0.16"/>
	<path d="M45.6288 294.25L33.2002 326H439.2L449.2 23.75L421.181 54.4267C420.529 55.1406 419.947 55.9158 419.444 56.7415L401.947 85.4766C401.23 86.6533 400.355 87.7256 399.346 88.6634L378.091 108.415C372.575 113.541 363.638 111.588 360.762 104.629C357.579 96.9264 347.24 95.5811 342.192 102.213L336.099 110.218C333.169 114.068 327.155 113.228 325.391 108.723C323.081 102.821 314.45 103.778 313.489 110.042L305.641 161.189C305.381 162.884 304.829 164.52 304.01 166.026L293.918 184.589C291.64 188.779 285.472 188.274 283.904 183.77C282.042 178.417 274.276 179.05 273.305 184.634L271.414 195.5L263.129 227.25C260.01 237.492 245.666 237.912 241.953 227.87L241.724 227.25L227.224 195.5L216.176 163.75L216.082 163.415C213.695 154.973 201.646 155.218 199.605 163.75L191.319 195.5L181.653 227.25L181.372 228.11C178.586 236.652 166.3 236.029 164.391 227.25C162.787 218.033 150.133 216.638 146.56 225.284L145.748 227.25L138.038 244.977C136.432 248.668 130.962 247.775 130.613 243.765C130.257 239.678 124.629 238.867 123.133 242.687L116.748 259L109.365 276.868C107.21 282.083 99.8524 282.166 97.5798 277.001L97.1635 276.055C94.9955 271.127 87.9321 271.34 86.0652 276.39C84.0334 281.885 76.1333 281.494 74.6538 275.825L71.3195 263.048C71.2242 262.683 71.1559 262.312 71.1151 261.936C70.2447 253.932 59.224 252.464 56.289 259.962L55.2954 262.5L45.6288 294.25Z" fill="url(#paint2_linear_13_250)" fill-opacity="0.24" stroke="url(#paint3_linear_13_250)" stroke-opacity="0.24" stroke-linecap="round"/>
	<path d="M33 32V326H440" stroke="url(#paint4_linear_13_250)" stroke-width="1.5" stroke-linecap="round" stroke-linejoin="round"/>
	<rect x="72.5674" y="32" width="228.002" height="40.0015" rx="20.0008" transform="rotate(5.11711 72.5674 32)" fill="white" fill-opacity="0.04"/>
	<path d="M91.9958 59.3426L92.8698 49.5817L101.278 50.3346L100.404 60.0956L99.0376 59.9732L99.8355 51.0628L100.138 51.4554L93.7931 50.8872L94.1742 50.5559L93.3762 59.4662L91.9958 59.3426ZM107.136 60.7827C106.522 60.7278 105.972 60.5379 105.486 60.2133C105.01 59.8801 104.643 59.421 104.386 58.8357C104.139 58.2513 104.053 57.5408 104.127 56.7041C104.202 55.8675 104.409 55.1832 104.747 54.6512C105.094 54.1201 105.532 53.7375 106.059 53.5036C106.595 53.2705 107.179 53.1823 107.811 53.2389C108.536 53.3038 109.164 53.5193 109.693 53.8853C110.223 54.2513 110.625 54.7324 110.899 55.3286C111.175 55.9155 111.279 56.5855 111.211 57.3385C111.144 58.0914 110.922 58.7369 110.546 59.2748C110.17 59.8128 109.689 60.2148 109.102 60.4809C108.516 60.747 107.861 60.8476 107.136 60.7827ZM102.983 63.0533L103.887 52.9577L105.17 53.0726L104.991 55.0666L104.754 56.7743L104.74 58.5019L104.321 63.1732L102.983 63.0533ZM107.129 59.6014C107.603 59.6438 108.036 59.5748 108.427 59.3943C108.827 59.2146 109.152 58.9391 109.4 58.5678C109.659 58.1881 109.812 57.7379 109.859 57.2173C109.906 56.6875 109.835 56.222 109.646 55.8208C109.467 55.4113 109.197 55.0825 108.835 54.8345C108.482 54.5874 108.069 54.4427 107.595 54.4002C107.13 54.3586 106.697 54.4276 106.297 54.6073C105.906 54.7878 105.582 55.0633 105.324 55.4337C105.076 55.7957 104.928 56.2417 104.88 56.7716C104.834 57.2921 104.9 57.7619 105.078 58.1808C105.266 58.5912 105.536 58.9199 105.889 59.167C106.251 59.415 106.664 59.5598 107.129 59.6014ZM115.983 61.575C115.239 61.5084 114.594 61.2866 114.047 60.9096C113.499 60.5326 113.084 60.0456 112.8 59.4486C112.517 58.8422 112.408 58.1765 112.473 57.4514C112.539 56.717 112.764 56.0813 113.15 55.5442C113.535 55.0071 114.03 54.6063 114.635 54.3419C115.24 54.0681 115.915 53.9645 116.659 54.0311C117.393 54.0969 118.034 54.3183 118.581 54.6953C119.138 55.0638 119.554 55.5461 119.829 56.1423C120.114 56.7301 120.223 57.3958 120.156 58.1395C120.09 58.8739 119.865 59.5096 119.479 60.0467C119.103 60.5846 118.608 60.99 117.993 61.263C117.387 61.5367 116.717 61.6407 115.983 61.575ZM116.088 60.4036C116.562 60.4461 116.995 60.3771 117.386 60.1966C117.786 60.0169 118.11 59.7414 118.359 59.3701C118.609 58.9895 118.757 58.5389 118.803 58.0183C118.851 57.4885 118.785 57.0234 118.605 56.6231C118.426 56.2135 118.156 55.8847 117.794 55.6368C117.441 55.3897 117.028 55.2449 116.554 55.2025C116.08 55.16 115.647 55.229 115.256 55.4095C114.865 55.5901 114.54 55.8655 114.282 56.236C114.025 56.5972 113.873 57.0427 113.825 57.5726C113.779 58.0931 113.849 58.5633 114.036 58.983C114.225 59.3934 114.495 59.7222 114.848 59.9693C115.2 60.2164 115.614 60.3612 116.088 60.4036ZM121.758 62.0078L122.42 54.6173L123.759 54.7372L123.277 60.1197L128.29 55.143L129.504 55.2517L128.842 62.6421L127.503 62.5222L127.985 57.1398L122.985 62.1177L121.758 62.0078ZM133.47 63.155C132.912 63.105 132.37 62.9862 131.843 62.7985C131.327 62.6023 130.872 62.3506 130.477 62.0436L130.973 61.0619C131.306 61.3166 131.695 61.5295 132.139 61.7004C132.583 61.862 133.038 61.9637 133.503 62.0053C133.93 62.0436 134.302 62.0253 134.618 61.9506C134.943 61.8766 135.198 61.7588 135.381 61.5972C135.565 61.4262 135.668 61.2199 135.689 60.9782C135.72 60.6342 135.59 60.3556 135.3 60.1422C135.01 59.9288 134.591 59.7975 134.042 59.7484L132.704 59.6285L132.79 58.6664L134.045 58.7788C134.37 58.8079 134.657 58.7961 134.905 58.7434C135.154 58.6907 135.35 58.5958 135.493 58.4587C135.647 58.3131 135.733 58.1381 135.751 57.9336C135.771 57.7105 135.709 57.5128 135.565 57.3406C135.421 57.1685 135.209 57.0276 134.928 56.9182C134.657 56.8095 134.331 56.7381 133.949 56.704C133.577 56.68 133.191 56.697 132.792 56.755C132.403 56.8138 131.999 56.9229 131.582 57.0824L131.313 56.0041C131.779 55.8302 132.23 55.7067 132.668 55.6334C133.116 55.5517 133.554 55.5253 133.982 55.5543C134.625 55.5932 135.19 55.7187 135.677 55.931C136.165 56.134 136.539 56.4018 136.8 56.7344C137.07 57.0678 137.186 57.4437 137.149 57.862C137.117 58.2152 136.977 58.5213 136.729 58.7802C136.482 59.0298 136.165 59.217 135.779 59.3417C135.393 59.4665 134.959 59.5072 134.475 59.4639L134.56 59.1482C135.387 59.2223 136.023 59.4432 136.468 59.811C136.913 60.1789 137.111 60.6417 137.061 61.1994C137.021 61.6456 136.837 62.0274 136.509 62.3447C136.181 62.6528 135.753 62.8815 135.224 63.0309C134.706 63.1719 134.121 63.2132 133.47 63.155ZM138.902 63.543L139.564 56.1526L142.995 56.4598C143.859 56.5372 144.523 56.7653 144.985 57.1441C145.458 57.5144 145.668 58.0017 145.614 58.6059C145.559 59.2102 145.28 59.6584 144.776 59.9506C144.282 60.2343 143.65 60.3417 142.878 60.2726L143.12 59.9288C144.003 60.0078 144.644 60.2292 145.042 60.5929C145.441 60.9565 145.611 61.4544 145.555 62.0866C145.497 62.728 145.211 63.2083 144.695 63.5276C144.189 63.8384 143.444 63.9497 142.458 63.8614L138.902 63.543ZM140.306 62.6285L142.453 62.8208C143.011 62.8708 143.437 62.8246 143.73 62.6822C144.025 62.5306 144.19 62.2642 144.224 61.883C144.259 61.4926 144.154 61.1974 143.909 60.9975C143.675 60.7891 143.284 60.6603 142.735 60.6112L140.504 60.4114L140.306 62.6285ZM140.59 59.4492L142.598 59.6291C143.11 59.6748 143.504 59.6164 143.781 59.4538C144.068 59.2827 144.227 59.0252 144.257 58.6813C144.289 58.328 144.178 58.051 143.924 57.8502C143.68 57.6503 143.302 57.5274 142.791 57.4816L140.783 57.3018L140.59 59.4492ZM150.626 64.6771C149.882 64.6106 149.236 64.3888 148.689 64.0118C148.142 63.6348 147.726 63.1478 147.443 62.5508C147.16 61.9444 147.05 61.2787 147.115 60.5536C147.181 59.8192 147.407 59.1835 147.792 58.6464C148.178 58.1093 148.673 57.7085 149.277 57.4441C149.883 57.1703 150.557 57.0667 151.301 57.1333C152.036 57.1991 152.676 57.4205 153.224 57.7974C153.781 58.166 154.197 58.6483 154.471 59.2445C154.756 59.8323 154.865 60.498 154.799 61.2417C154.733 61.9761 154.507 62.6118 154.122 63.1489C153.746 63.6868 153.25 64.0922 152.635 64.3652C152.03 64.6389 151.36 64.7429 150.626 64.6771ZM150.731 63.5058C151.205 63.5483 151.637 63.4793 152.028 63.2988C152.428 63.1191 152.753 62.8436 153.002 62.4723C153.251 62.0917 153.399 61.6411 153.446 61.1205C153.494 60.5907 153.427 60.1256 153.248 59.7253C153.069 59.3157 152.798 58.9869 152.436 58.739C152.084 58.4919 151.67 58.3471 151.196 58.3046C150.722 58.2622 150.29 58.3312 149.899 58.5117C149.508 58.6922 149.183 58.9677 148.925 59.3382C148.668 59.6994 148.515 60.1449 148.468 60.6748C148.421 61.1953 148.492 61.6655 148.679 62.0852C148.867 62.4956 149.138 62.8244 149.49 63.0715C149.843 63.3186 150.256 63.4634 150.731 63.5058ZM161.45 64.9296L161.951 59.338L158.744 59.0508L158.547 60.4669C158.487 60.93 158.414 61.378 158.328 61.8107C158.253 62.235 158.152 62.6243 158.027 62.9785C157.911 63.3336 157.758 63.6198 157.57 63.8372C157.382 64.0546 157.146 64.1787 156.862 64.2095L155.559 63.8539C155.846 63.889 156.087 63.8168 156.281 63.6374C156.476 63.4487 156.636 63.1819 156.76 62.837C156.894 62.4929 157.004 62.0998 157.091 61.6578C157.178 61.2064 157.257 60.7403 157.328 60.2594L157.663 57.7734L163.395 58.2866L162.789 65.0495L161.45 64.9296ZM155.007 66.7141L155.266 63.8276L163.967 64.6068L163.709 67.4933L162.454 67.3809L162.607 65.6658L156.43 65.1126L156.276 66.8277L155.007 66.7141ZM165.606 65.9343L166.268 58.5439L167.607 58.6637L167.125 64.0462L172.138 59.0696L173.352 59.1782L172.69 66.5686L171.351 66.4488L171.833 61.0663L166.833 66.0442L165.606 65.9343ZM176.752 66.9324L177.34 60.3647L177.644 60.7433L174.604 60.4711L174.709 59.2997L181.458 59.9041L181.353 61.0754L178.327 60.8045L178.679 60.4846L178.091 67.0523L176.752 66.9324ZM185.121 67.7662C184.331 67.6954 183.649 67.4703 183.073 67.0908C182.508 66.7122 182.083 66.2244 181.799 65.6273C181.524 65.0311 181.42 64.3658 181.486 63.6314C181.551 62.897 181.768 62.2605 182.135 61.7217C182.511 61.1838 182.992 60.7818 183.578 60.5156C184.174 60.2411 184.825 60.1354 185.532 60.1987C186.248 60.2628 186.866 60.4774 187.386 60.8426C187.906 61.2078 188.294 61.6923 188.549 62.2961C188.814 62.8915 188.913 63.5703 188.844 64.3326C188.839 64.3884 188.829 64.453 188.813 64.5266C188.806 64.6009 188.796 64.6702 188.78 64.7345L182.492 64.1713L182.578 63.2092L188.169 63.7099L187.596 63.9958C187.647 63.5226 187.588 63.0909 187.416 62.7007C187.245 62.3105 186.987 61.997 186.643 61.76C186.309 61.5145 185.905 61.3706 185.431 61.3281C184.966 61.2865 184.543 61.3564 184.161 61.5377C183.78 61.7098 183.47 61.9772 183.232 62.34C182.994 62.6936 182.853 63.112 182.81 63.5954L182.79 63.8185C182.746 64.3112 182.818 64.7628 183.006 65.1732C183.205 65.5752 183.499 65.9014 183.888 66.1518C184.278 66.4022 184.738 66.5512 185.268 66.5986C185.705 66.6378 186.107 66.5988 186.473 66.4817C186.849 66.3654 187.185 66.1706 187.481 65.8972L188.143 66.828C187.773 67.1884 187.329 67.4485 186.808 67.608C186.297 67.7684 185.735 67.8211 185.121 67.7662ZM189.246 68.0371L189.43 66.9151C189.495 66.9303 189.554 66.945 189.609 66.9593C189.664 66.9735 189.715 66.9828 189.761 66.9869C190.059 67.0136 190.3 66.9321 190.486 66.7426C190.681 66.5539 190.835 66.296 190.949 65.9688C191.063 65.6323 191.158 65.252 191.234 64.8277C191.309 64.4034 191.375 63.9782 191.432 63.5523L191.803 60.8305L197.478 61.3387L196.816 68.7291L195.477 68.6092L196.069 61.9997L196.355 62.4188L192.562 62.0792L192.905 61.7023L192.624 63.7433C192.538 64.3916 192.432 64.9959 192.307 65.5563C192.182 66.1167 192.021 66.6036 191.825 67.0171C191.638 67.4314 191.399 67.7473 191.107 67.9649C190.826 68.1833 190.475 68.2738 190.057 68.2363C189.936 68.2255 189.807 68.1999 189.67 68.1595C189.542 68.1293 189.4 68.0885 189.246 68.0371ZM203.258 64.3863C204.196 64.4797 204.893 64.7576 205.348 65.2201C205.803 65.6825 205.997 66.2949 205.928 67.0572C205.857 67.8566 205.532 68.4507 204.953 68.8393C204.376 69.2187 203.595 69.3596 202.61 69.262L199.404 68.9609L200.066 61.5705L201.405 61.6903L201.181 64.1863L203.258 64.3863ZM202.59 68.2341C203.193 68.2975 203.66 68.2175 203.989 67.9939C204.328 67.7712 204.519 67.4136 204.563 66.9209C204.606 66.4375 204.485 66.0705 204.198 65.8199C203.911 65.5693 203.461 65.4119 202.848 65.3477L201.094 65.1624L200.834 68.0628L202.59 68.2341ZM207.425 69.6791L208.087 62.2887L209.426 62.4086L209.145 65.546L213.356 65.9231L213.637 62.7857L214.975 62.9055L214.314 70.296L212.975 70.1761L213.252 67.0805L209.041 66.7034L208.764 69.799L207.425 69.6791ZM220.074 70.8962C219.331 70.8296 218.685 70.6078 218.138 70.2308C217.591 69.8538 217.175 69.3668 216.891 68.7698C216.608 68.1635 216.499 67.4978 216.564 66.7727C216.63 66.0383 216.855 65.4025 217.241 64.8654C217.626 64.3283 218.121 63.9276 218.726 63.6631C219.332 63.3893 220.006 63.2858 220.75 63.3524C221.484 63.4181 222.125 63.6395 222.672 64.0165C223.23 64.385 223.646 64.8673 223.92 65.4635C224.205 66.0513 224.314 66.717 224.247 67.4607C224.182 68.1951 223.956 68.8308 223.571 69.3679C223.194 69.9059 222.699 70.3113 222.084 70.5842C221.479 70.8579 220.809 70.9619 220.074 70.8962ZM220.179 69.7249C220.653 69.7673 221.086 69.6983 221.477 69.5178C221.877 69.3381 222.202 69.0626 222.45 68.6913C222.7 68.3107 222.848 67.8601 222.895 67.3396C222.942 66.8097 222.876 66.3446 222.696 65.9443C222.518 65.5347 222.247 65.206 221.885 64.958C221.532 64.7109 221.119 64.5661 220.645 64.5237C220.171 64.4812 219.738 64.5503 219.347 64.7308C218.956 64.9113 218.632 65.1868 218.374 65.5572C218.116 65.9184 217.964 66.3639 217.917 66.8938C217.87 67.4144 217.94 67.8845 218.128 68.3042C218.316 68.7146 218.586 69.0434 218.939 69.2905C219.292 69.5376 219.705 69.6824 220.179 69.7249ZM229.063 71.7011C228.31 71.6337 227.651 71.4106 227.085 71.032C226.528 70.6542 226.108 70.1668 225.824 69.5697C225.54 68.9727 225.431 68.307 225.497 67.5726C225.563 66.8382 225.788 66.2025 226.174 65.6654C226.559 65.1283 227.059 64.7279 227.673 64.4643C228.297 64.1922 228.986 64.0899 229.739 64.1573C230.408 64.2172 230.991 64.4053 231.487 64.7215C231.994 65.0293 232.368 65.4563 232.609 66.0027L231.533 66.5669C231.324 66.1827 231.05 65.8912 230.712 65.6922C230.383 65.4848 230.019 65.3632 229.62 65.3274C229.136 65.2841 228.695 65.3523 228.294 65.5319C227.894 65.7116 227.565 65.9867 227.307 66.3572C227.049 66.7183 226.897 67.1638 226.85 67.6937C226.802 68.2236 226.873 68.6937 227.061 69.1042C227.249 69.5146 227.524 69.8438 227.886 70.0917C228.248 70.3396 228.671 70.4853 229.154 70.5285C229.554 70.5643 229.933 70.514 230.292 70.3774C230.661 70.2325 230.983 69.9895 231.257 69.6486L232.217 70.3812C231.883 70.8667 231.439 71.2251 230.884 71.4566C230.339 71.6795 229.732 71.761 229.063 71.7011ZM235.184 72.1649L235.773 65.5972L236.076 65.9758L233.036 65.7036L233.141 64.5323L239.89 65.1366L239.785 66.3079L236.759 66.037L237.111 65.7171L236.523 72.2848L235.184 72.1649ZM244.45 68.0751C245.389 68.1685 246.085 68.4464 246.54 68.9088C246.996 69.3713 247.189 69.9836 247.121 70.7459C247.049 71.5454 246.724 72.1394 246.146 72.5281C245.569 72.9074 244.788 73.0483 243.803 72.9508L240.597 72.6496L241.259 65.2592L242.598 65.3791L242.374 67.8751L244.45 68.0751ZM243.783 71.9229C244.386 71.9863 244.852 71.9062 245.182 71.6827C245.52 71.46 245.711 71.1023 245.756 70.6096C245.799 70.1262 245.677 69.7592 245.39 69.5086C245.104 69.258 244.654 69.1006 244.041 69.0364L242.287 68.8512L242.027 71.7516L243.783 71.9229Z" fill="white"/>
	<g clip-path="url(#clip0_13_250)">
	<path opacity="0.987" fill-rule="evenodd" clip-rule="evenodd" d="M278.515 63.9926C278.501 64.1482 278.487 64.3039 278.473 64.4595C278.375 64.6198 278.234 64.7314 278.051 64.7943C277.557 64.7697 277.063 64.7321 276.571 64.6815C276.512 65.4085 276.441 66.1341 276.356 66.8585C276.19 67.3339 275.858 67.6113 275.36 67.691C274.735 67.6613 274.113 67.6056 273.493 67.524C273.017 67.3572 272.74 67.0252 272.66 66.5278C272.706 65.7999 272.764 65.0731 272.836 64.3473C272.342 64.3097 271.85 64.2591 271.359 64.1956C271.025 63.9903 270.927 63.7004 271.064 63.326C271.095 63.2764 271.125 63.2269 271.156 63.1773C272.325 62.1899 273.503 61.2169 274.692 60.2582C274.963 60.1517 275.222 60.1749 275.47 60.3278C276.47 61.4823 277.457 62.6491 278.432 63.8283C278.45 63.8913 278.478 63.9461 278.515 63.9926Z" fill="white"/>
	<path opacity="0.984" fill-rule="evenodd" clip-rule="evenodd" d="M265.491 79.3774C265.011 79.3345 264.531 79.2915 264.051 79.2486C263.756 79.1304 263.532 78.9274 263.38 78.6395C263.253 78.1918 263.15 77.7381 263.071 77.2784C262.788 77.1281 262.508 76.9723 262.23 76.811C261.782 77.0182 261.322 77.1927 260.85 77.3346C260.451 77.3674 260.109 77.2452 259.824 76.9682C259.579 76.6902 259.35 76.4018 259.136 76.1028C258.964 75.7364 258.958 75.3698 259.117 75.0029C259.346 74.6384 259.568 74.2726 259.784 73.9056C259.683 73.6223 259.598 73.3336 259.528 73.0395C259.164 72.8679 258.793 72.7105 258.414 72.5672C258.082 72.393 257.857 72.131 257.739 71.7813C257.786 71.2496 257.834 70.7179 257.881 70.1861C258.003 69.9578 258.177 69.7707 258.402 69.6248C258.885 69.481 259.372 69.3613 259.866 69.2656C259.99 68.9706 260.139 68.6898 260.314 68.4232C260.12 68.049 259.952 67.6614 259.81 67.2604C259.732 66.8364 259.818 66.452 260.07 66.1071C260.407 65.8012 260.765 65.526 261.144 65.2816C261.417 65.2124 261.692 65.2108 261.968 65.2769C262.385 65.5036 262.788 65.7553 263.175 66.032C263.473 65.9118 263.776 65.8083 264.085 65.7212C264.271 65.2598 264.474 64.8074 264.697 64.3641C265.1 63.9788 265.575 63.8514 266.123 63.9819C266.804 63.9296 267.283 64.2077 267.559 64.8162C267.657 65.2406 267.743 65.6666 267.817 66.0943C268.116 66.2004 268.398 66.3432 268.661 66.5228C269.09 66.3198 269.531 66.1435 269.983 65.994C270.332 65.9653 270.651 66.0462 270.942 66.2366C271.207 66.5545 271.473 66.8724 271.739 67.1904C271.935 67.581 271.939 67.9736 271.751 68.368C271.526 68.7049 271.306 69.0447 271.091 69.3875C271.125 69.5121 271.166 69.6335 271.215 69.7516C270.257 69.6719 269.33 69.8047 268.434 70.1499C267.455 68.5963 266.078 68.0613 264.303 68.5448C262.836 69.1755 262.115 70.2941 262.14 71.9006C262.269 73.1445 262.887 74.0561 263.994 74.6352C264.285 74.7758 264.59 74.8749 264.908 74.9328C264.833 76.4303 265.249 77.7683 266.157 78.9468C265.99 79.1766 265.768 79.3202 265.491 79.3774Z" fill="white"/>
	<path opacity="0.971" fill-rule="evenodd" clip-rule="evenodd" d="M265.548 69.5387C266.361 69.6229 266.953 70.0223 267.323 70.7368C266.281 71.4995 265.563 72.5008 265.172 73.7406C263.953 73.4812 263.341 72.7271 263.335 71.4781C263.473 70.4624 264.04 69.8333 265.033 69.5907C265.21 69.5722 265.381 69.5549 265.548 69.5387Z" fill="white"/>
	<path opacity="0.985" fill-rule="evenodd" clip-rule="evenodd" d="M270.743 79.8473C270.354 79.8125 269.965 79.7777 269.576 79.7429C267.24 79.0222 266.088 77.4353 266.119 74.9823C266.402 73.031 267.472 71.741 269.328 71.1123C271.299 70.6547 272.916 71.2112 274.179 72.7817C275.265 74.4819 275.282 76.196 274.229 77.9238C273.361 79.0941 272.199 79.7352 270.743 79.8473ZM270.557 73.1635C270.897 73.1373 271.139 73.2767 271.284 73.5816C271.285 74.1285 271.262 74.6755 271.216 75.2226C271.472 75.4864 271.682 75.7796 271.843 76.1023C271.875 76.4885 271.703 76.7281 271.328 76.821C271.143 76.8306 270.978 76.7766 270.832 76.659C270.578 76.3552 270.324 76.0515 270.071 75.7477C270.021 75.6736 269.989 75.5923 269.975 75.5038C270.007 74.853 270.065 74.2046 270.149 73.5584C270.229 73.3658 270.365 73.2341 270.557 73.1635Z" fill="white"/>
	</g>
	<defs>
	<linearGradient id="paint0_linear_13_250" x1="236" y1="0" x2="236" y2="358" gradientUnits="userSpaceOnUse">
	<stop stop-color="white"/>
	<stop offset="1" stop-color="white" stop-opacity="0"/>
	</linearGradient>
	<linearGradient id="paint1_linear_13_250" x1="236" y1="0" x2="236" y2="358" gradientUnits="userSpaceOnUse">
	<stop stop-color="white"/>
	<stop offset="1" stop-color="white" stop-opacity="0.24"/>
	</linearGradient>
	<linearGradient id="paint2_linear_13_250" x1="307.5" y1="70.5" x2="373" y2="277" gradientUnits="userSpaceOnUse">
	<stop stop-color="#04D404"/>
	<stop offset="1" stop-color="#04D404" stop-opacity="0"/>
	</linearGradient>
	<linearGradient id="paint3_linear_13_250" x1="220" y1="148" x2="218" y2="244.5" gradientUnits="userSpaceOnUse">
	<stop stop-color="#04D404"/>
	<stop offset="1" stop-color="#04D404" stop-opacity="0"/>
	</linearGradient>
	<linearGradient id="paint4_linear_13_250" x1="33" y1="326" x2="237" y2="105" gradientUnits="userSpaceOnUse">
	<stop stop-color="white"/>
	<stop offset="1" stop-color="white" stop-opacity="0"/>
	</linearGradient>
	<clipPath id="clip0_13_250">
	<rect width="20" height="20" fill="white" transform="translate(258.926 58.7297) rotate(5.11276)"/>
	</clipPath>
	</defs>
	</svg>
	