<svg width="60" height="60" viewBox="0 0 60 60" fill="none" xmlns="http://www.w3.org/2000/svg">
    <rect width="60" height="60" rx="12" fill="white" fill-opacity="0.04"/>
    <rect x="0.5" y="0.5" width="59" height="59" rx="11.5" stroke="url(#paint0_linear_484_339)" stroke-opacity="0.16"/>
    <path d="M44.937 22.6752L42.5662 22.2459C42.4463 22.1218 42.2988 22.0219 42.1348 21.9517C42.3212 21.7631 42.4796 21.5724 42.5998 21.4145C42.8897 21.0338 43.1311 20.6237 43.2986 20.2282C43.3809 20.0613 43.4507 19.8936 43.5081 19.7293C43.7326 19.5586 43.8648 19.3036 43.8648 19.0362V18.3811C43.8648 18.1928 43.8 18.0093 43.6799 17.8566V16.9342C43.6799 15.3162 42.2257 14 40.4382 14H39.3873C37.6002 14 36.1457 15.3162 36.1457 16.9342V17.8566C36.0261 18.0093 35.9606 18.1929 35.9606 18.3811V19.0362C35.9606 19.3035 36.0926 19.5581 36.3177 19.729C36.3749 19.8932 36.445 20.0611 36.5274 20.2284C36.6945 20.6237 36.9361 21.0338 37.2262 21.4142C37.3466 21.5726 37.505 21.7635 37.6923 21.9529C37.5287 22.0232 37.3823 22.1228 37.2625 22.2463L34.9416 22.6719C34.9284 22.6876 34.9155 22.7035 34.902 22.7188C34.8597 22.8204 34.8145 22.9208 34.7667 23.0194C34.7037 23.1654 34.6332 23.3124 34.5557 23.4591L35.3014 23.5941C36.6238 23.8334 37.5836 24.8935 37.5836 26.1147V33.8652C37.5836 34.1217 37.5426 34.372 37.4613 34.6129V35.217C37.4613 36.235 36.7637 37.108 35.7785 37.4651V41.854C35.7785 42.8927 36.7088 47.5 37.8564 47.5C39.0035 47.5 39.9337 33.9908 39.9337 32.952C39.9337 33.9907 40.8637 47.5 42.0116 47.5C43.1587 47.5 44.0886 42.8928 44.0886 41.854V33.8293C44.2707 33.9368 44.4875 33.9996 44.7208 33.9996C45.3605 33.9996 45.878 33.5305 45.878 32.952V32.1024C45.9567 31.9498 46.0003 31.7796 46.0003 31.6002V23.8496C46.0003 23.2787 45.5551 22.7871 44.937 22.6752ZM39.2909 24.6389C39.2821 24.7157 39.2225 24.78 39.1399 24.8006C39.1213 24.8055 39.1029 24.8075 39.0842 24.8075C39.0201 24.8075 38.9581 24.7807 38.9184 24.7328L38.3345 24.0318C38.3075 23.9992 38.2926 23.9593 38.2926 23.9184L38.2933 22.7948C38.2934 22.7289 38.3317 22.6677 38.3941 22.6335C38.4562 22.5995 38.5338 22.5979 38.5984 22.6284C38.768 22.7099 38.938 22.7646 39.1027 22.7909C39.2017 22.8071 39.2739 22.8851 39.2739 22.9761V23.445C39.3039 23.4558 39.3306 23.4722 39.3524 23.4942C39.3918 23.5338 39.411 23.5866 39.4049 23.6393L39.2909 24.6389ZM41.4904 24.0317L40.9077 24.7321C40.8675 24.7801 40.8058 24.8073 40.7418 24.8073C40.7231 24.8073 40.7041 24.8049 40.6856 24.8005C40.6031 24.7798 40.5433 24.7154 40.5346 24.6385L40.421 23.6391C40.4149 23.5863 40.4337 23.5337 40.4733 23.4939C40.4949 23.472 40.5216 23.4555 40.5518 23.4448V22.9759C40.5518 22.8848 40.6241 22.8068 40.7234 22.7907C40.8873 22.7644 41.0572 22.7098 41.2272 22.6284C41.2921 22.5978 41.3692 22.5995 41.4314 22.6334C41.4942 22.6675 41.5318 22.7288 41.5318 22.7947L41.5321 23.9185C41.5321 23.9594 41.5175 23.9992 41.4904 24.0317ZM41.7018 20.8303C41.1936 21.4975 40.7178 21.796 40.4708 21.796H39.3549C39.1081 21.796 38.6318 21.4974 38.1237 20.8303C37.723 20.3038 37.4441 19.7215 37.3787 19.272L37.3673 19.1941L37.1656 19.0757C37.1066 19.0408 37.0709 18.9817 37.0709 18.9178V18.6085C37.0709 18.5046 37.1642 18.4202 37.2789 18.4202H37.3635V18.0847C37.3635 18.0134 37.4081 17.9485 37.4785 17.9165C37.7645 17.7876 38.3324 17.5704 38.9202 17.5704C39.3887 17.5704 39.7776 17.7116 40.0756 17.99C40.4465 18.3376 40.8748 18.5135 41.3469 18.5135C41.615 18.5135 41.8912 18.4565 42.169 18.3435C42.2333 18.3174 42.308 18.3225 42.3674 18.3574C42.3952 18.3735 42.4172 18.3951 42.4335 18.4201H42.5468C42.6616 18.4201 42.7549 18.5045 42.7549 18.6084V18.9178C42.7549 18.9816 42.7189 19.0408 42.6603 19.0756L42.4588 19.1941L42.447 19.2718C42.3816 19.7214 42.1026 20.3038 41.7018 20.8303Z" fill="white"/>
    <path d="M22.5386 35.2171V34.6118C22.4576 34.371 22.4167 34.1211 22.4167 33.8654V26.1135C22.4167 24.8954 23.3739 23.8358 24.6925 23.5941L25.4054 23.4635C25.327 23.3152 25.2556 23.1666 25.1922 23.0193C25.1441 22.9202 25.0989 22.8198 25.0568 22.7188C25.0412 22.701 25.0262 22.6829 25.0112 22.6646L22.6991 22.2459C22.5792 22.1219 22.4318 22.022 22.2677 21.9518C22.4542 21.7632 22.6124 21.5724 22.7327 21.4145C23.0227 21.0339 23.264 20.6237 23.4315 20.2282C23.5138 20.0614 23.5835 19.8937 23.641 19.7293C23.8654 19.5587 23.9978 19.3037 23.9978 19.0363V18.3812C23.9978 18.1929 23.9329 18.0093 23.813 17.8566V16.9342C23.813 15.3162 22.3586 14 20.571 14H19.5202C17.7331 14 16.2788 15.3162 16.2788 16.9342V17.8566C16.1589 18.0093 16.0935 18.1929 16.0935 18.3811V19.0362C16.0935 19.3035 16.2257 19.5581 16.4507 19.729C16.5078 19.8932 16.5778 20.0611 16.6603 20.2284C16.8273 20.6237 17.0689 21.0338 17.3589 21.4142C17.4795 21.5726 17.6378 21.7635 17.8251 21.9529C17.6615 22.0232 17.515 22.1228 17.3954 22.2463L15.0601 22.6746C14.4435 22.7876 14 23.2783 14 23.8483V31.6003C14 31.7797 14.0439 31.9499 14.1219 32.1025V32.9521C14.1219 33.5305 14.6399 33.9997 15.2793 33.9997C15.5124 33.9997 15.7297 33.9368 15.9113 33.8293V41.8542C15.9113 42.8929 16.8415 47 17.9892 47C19.1362 47 20.0665 34.5388 20.0665 33.5C20.0665 34.5387 21.1196 47 22.2677 47C23.4147 47 24.2214 42.8929 24.2214 41.8542V37.4651C23.2363 37.108 22.5386 36.2349 22.5386 35.2171ZM19.4238 24.6389C19.415 24.7157 19.3554 24.78 19.2728 24.8006C19.2542 24.8055 19.2358 24.8075 19.2171 24.8075C19.1528 24.8075 19.091 24.7807 19.0514 24.7328L18.4674 24.0318C18.4403 23.9992 18.4257 23.9593 18.4257 23.9184L18.4262 22.7948C18.4263 22.7289 18.4647 22.6677 18.5271 22.6335C18.5891 22.5995 18.6667 22.5979 18.7312 22.6284C18.901 22.7099 19.071 22.7646 19.2356 22.7909C19.3346 22.8071 19.4069 22.8851 19.4069 22.9761V23.445C19.4366 23.4558 19.4635 23.4722 19.4853 23.4942C19.5247 23.5338 19.5438 23.5866 19.5378 23.6393L19.4238 24.6389ZM21.6233 24.0317L21.0405 24.7321C21.0005 24.7801 20.9387 24.8073 20.8746 24.8073C20.856 24.8073 20.837 24.8049 20.8185 24.8005C20.7362 24.7798 20.6763 24.7154 20.6676 24.6385L20.554 23.6391C20.5479 23.5863 20.5668 23.5337 20.6061 23.4939C20.6278 23.472 20.6545 23.4555 20.6848 23.4448V22.9759C20.6848 22.8848 20.7571 22.8068 20.8562 22.7907C21.0203 22.7644 21.1901 22.7098 21.3602 22.6284C21.4249 22.5978 21.5022 22.5995 21.5644 22.6334C21.6272 22.6675 21.6648 22.7288 21.6648 22.7947L21.665 23.9185C21.6649 23.9594 21.6505 23.9992 21.6233 24.0317ZM21.8346 20.8303C21.3264 21.4975 20.8508 21.796 20.6038 21.796H19.4877C19.241 21.796 18.7647 21.4974 18.2567 20.8303C17.8558 20.3038 17.5769 19.7215 17.5115 19.272L17.5001 19.1941L17.2985 19.0757C17.2395 19.0408 17.2039 18.9817 17.2039 18.9178V18.6085C17.2039 18.5046 17.297 18.4202 17.4118 18.4202H17.4964V18.0847C17.4964 18.0134 17.5412 17.9485 17.6115 17.9165C17.8977 17.7876 18.4653 17.5704 19.0531 17.5704C19.5216 17.5704 19.9106 17.7116 20.2086 17.99C20.5796 18.3376 21.0079 18.5135 21.48 18.5135C21.7481 18.5135 22.0242 18.4565 22.302 18.3435C22.3664 18.3174 22.4409 18.3225 22.5003 18.3574C22.528 18.3735 22.5501 18.3951 22.5665 18.4201H22.6798C22.7946 18.4201 22.8879 18.5045 22.8879 18.6084V18.9178C22.8879 18.9816 22.8519 19.0408 22.7931 19.0756L22.5917 19.1941L22.58 19.2718C22.5144 19.7214 22.2356 20.3038 21.8346 20.8303Z" fill="white"/>
    <path d="M35.9444 34.368C36.0231 34.2154 36.0668 34.0451 36.0668 33.8657V26.1151C36.0668 25.5443 35.6215 25.0526 35.0035 24.9406L32.6328 24.5113C32.5129 24.3873 32.3653 24.2873 32.2013 24.2173C32.3878 24.0285 32.5459 23.8378 32.6663 23.68C32.9562 23.2993 33.1976 22.8892 33.365 22.4936C33.4474 22.3267 33.5171 22.1591 33.5745 21.9946C33.7989 21.8241 33.9314 21.5689 33.9314 21.3016V20.6465C33.9314 20.4582 33.8665 20.2746 33.7464 20.1219V19.1997C33.7464 17.5817 32.2922 16.2656 30.5048 16.2656H29.4538C27.6666 16.2656 26.2123 17.5817 26.2123 19.1997V20.1222C26.0925 20.2748 26.0271 20.4585 26.0271 20.6466V21.3017C26.0271 21.5691 26.1592 21.8236 26.3843 21.9946C26.4415 22.1587 26.5114 22.3268 26.5939 22.4939C26.7609 22.8894 27.0024 23.2994 27.2925 23.6799C27.4131 23.8383 27.5713 24.0292 27.7587 24.2185C27.5951 24.2887 27.4487 24.3885 27.329 24.5119L24.9937 24.9402C24.3771 25.0532 23.9336 25.5439 23.9336 26.114V33.8659C23.9336 34.0452 23.9775 34.2155 24.0554 34.3681V35.2177C24.0554 35.7962 24.5734 36.2655 25.2129 36.2655C25.446 36.2655 25.6632 36.2025 25.8447 36.095V44.1196C25.8447 45.1584 26.611 50.5 27.7587 50.5C28.9057 50.5 30.0001 24.0389 30.0001 23C30.0001 24.0388 30.9298 50.5 32.0779 50.5C33.225 50.5 34.1547 45.1585 34.1547 44.1196V36.0948C34.3368 36.2024 34.5538 36.2653 34.7872 36.2653C35.4266 36.2653 35.9443 35.796 35.9443 35.2176L35.9444 34.368ZM29.3573 26.9046C29.3486 26.9813 29.2888 27.0455 29.2064 27.0662C29.1879 27.0709 29.1694 27.073 29.1507 27.073C29.0864 27.073 29.0245 27.0462 28.985 26.9984L28.4009 26.2972C28.3738 26.2646 28.3591 26.2247 28.3591 26.1838L28.3598 25.0602C28.3599 24.9942 28.3981 24.9331 28.4606 24.8989C28.5227 24.8649 28.6003 24.8632 28.6648 24.8938C28.8346 24.9753 29.0044 25.0299 29.1692 25.0563C29.2681 25.0724 29.3404 25.1505 29.3404 25.2415V25.7103C29.3703 25.7212 29.3971 25.7376 29.4189 25.7594C29.4583 25.7992 29.4773 25.8518 29.4712 25.9046L29.3573 26.9046ZM31.5568 26.2972L30.9739 26.9977C30.934 27.0456 30.8723 27.0729 30.8081 27.0729C30.7895 27.0729 30.7705 27.0704 30.7519 27.066C30.6697 27.0452 30.6099 26.981 30.6012 26.904L30.4876 25.9046C30.4815 25.8518 30.5003 25.7992 30.5396 25.7594C30.5613 25.7376 30.5882 25.7212 30.6183 25.7103V25.2415C30.6183 25.1505 30.6907 25.0724 30.7897 25.0563C30.9539 25.03 31.1236 24.9754 31.2938 24.8939C31.3584 24.8634 31.4359 24.8651 31.498 24.8991C31.5608 24.9331 31.5985 24.9943 31.5985 25.0604L31.5986 26.1841C31.5985 26.2249 31.584 26.2647 31.5568 26.2972ZM31.768 23.0959C31.26 23.763 30.7842 24.0615 30.5372 24.0615H29.4211C29.1745 24.0615 28.6981 23.7629 28.1902 23.0959C27.7893 22.5695 27.5104 21.9872 27.445 21.5375L27.4336 21.4597L27.232 21.3411C27.173 21.3064 27.1374 21.2473 27.1374 21.1834V20.8741C27.1374 20.7701 27.2304 20.6858 27.3453 20.6858H27.4299V20.3503C27.4299 20.279 27.4745 20.214 27.5448 20.182C27.831 20.053 28.3988 19.8359 28.9866 19.8359C29.4552 19.8359 29.8441 19.9772 30.1421 20.2556C30.513 20.6031 30.9413 20.7791 31.4134 20.7791C31.6815 20.7791 31.9577 20.722 32.2355 20.6091C32.2998 20.583 32.3742 20.5882 32.4337 20.6229C32.4614 20.6391 32.4835 20.6606 32.5 20.6858H32.6133C32.7281 20.6858 32.8213 20.77 32.8213 20.874V21.1834C32.8213 21.2473 32.7854 21.3064 32.7267 21.3411L32.5253 21.4597L32.5136 21.5374C32.448 21.9869 32.1691 22.5695 31.768 23.0959Z" fill="white"/>
    <defs>
    <linearGradient id="paint0_linear_484_339" x1="30" y1="0" x2="30" y2="60" gradientUnits="userSpaceOnUse">
    <stop stop-color="white"/>
    <stop offset="1" stop-color="white" stop-opacity="0.12"/>
    </linearGradient>
    </defs>
    </svg>
    