<svg width="60" height="60" viewBox="0 0 60 60" fill="none" xmlns="http://www.w3.org/2000/svg">
	<rect width="60" height="60" rx="12" fill="white" fill-opacity="0.04"/>
	<rect x="0.5" y="0.5" width="59" height="59" rx="11.5" stroke="url(#paint0_linear_484_249)" stroke-opacity="0.16"/>
	<path d="M25.6725 42.1389H24.7515L22.052 31.8809H17.8281L20.6084 42.4461C20.7479 42.9762 21.2273 43.3458 21.7755 43.3458H25.6726C26.0058 43.3458 26.276 43.0756 26.276 42.7423C26.2759 42.4092 26.0057 42.1389 25.6725 42.1389Z" fill="white"/>
	<path d="M22.4187 42.4461L20.3705 34.6629C20.2563 34.2293 20.6385 33.8292 21.0779 33.9183C21.6228 34.0288 22.1585 34.1443 22.6797 34.2663L22.052 31.8809H17.8281L20.6084 42.4461C20.7479 42.9762 21.2273 43.3458 21.7755 43.3458H23.5858C23.0375 43.3458 22.5582 42.9764 22.4187 42.4461Z" fill="white"/>
	<path d="M14.2068 25.2402C13.5404 25.2402 13 25.7805 13 26.4471V30.0676C13 30.7341 13.5404 31.2744 14.2068 31.2744H16.6205V25.2402H14.2068Z" fill="white"/>
	<path d="M15.4136 28.2573C14.7472 28.2573 14.2068 27.717 14.2068 27.0505V25.2402C13.5404 25.2402 13 25.7805 13 26.4471V30.0676C13 30.7341 13.5404 31.2744 14.2068 31.2744H16.6205V28.2573H15.4136Z" fill="white"/>
	<path d="M37.7396 18H35.9293C35.2629 18 34.7225 18.5403 34.7225 19.2068V19.4896C32.6858 20.4164 25.6885 23.3754 17.078 24.5088C16.4734 24.5883 16.0166 25.096 16.0166 25.706V30.8104C16.0166 31.4202 16.4734 31.9279 17.078 32.0075C25.6885 33.1408 32.6858 36.0999 34.7225 37.0266V37.3094C34.7225 37.9759 35.2629 38.5162 35.9293 38.5162H37.7396C38.4061 38.5162 38.9464 37.9759 38.9464 37.3094V19.2068C38.9464 18.5403 38.4061 18 37.7396 18Z" fill="white"/>
	<path d="M47.3964 28.8631H41.3622C41.0287 28.8631 40.7588 28.5933 40.7588 28.2597C40.7588 27.9261 41.0287 27.6562 41.3622 27.6562H47.3964C47.7299 27.6562 47.9999 27.9261 47.9999 28.2597C47.9999 28.5933 47.73 28.8631 47.3964 28.8631Z" fill="white"/>
	<path d="M46.7061 35.4475L41.1707 33.0453C40.8647 32.9125 40.7235 32.56 40.8549 32.257C40.9864 31.9541 41.3403 31.8164 41.6463 31.9492L47.1817 34.3514C47.4877 34.4842 47.629 34.8367 47.4975 35.1397C47.366 35.4426 47.0121 35.5803 46.7061 35.4475Z" fill="white"/>
	<path d="M47.5044 21.8817L42.6704 24.1426C42.4032 24.2676 42.072 24.1229 41.9299 23.8191C41.7878 23.5153 41.889 23.1684 42.1563 23.0434L46.9903 20.7826C47.2575 20.6576 47.5887 20.8022 47.7308 21.1061C47.8729 21.4099 47.7717 21.7568 47.5044 21.8817Z" fill="white"/>
	<path d="M41.3643 24.6381C41.1303 24.6381 40.9076 24.5015 40.8097 24.2722C40.6783 23.9663 40.8204 23.6116 41.1268 23.4802L42.937 22.7041C43.2405 22.5709 43.5976 22.7142 43.729 23.0212C43.8604 23.327 43.7183 23.6818 43.412 23.8132L41.6017 24.5892C41.5245 24.6228 41.4439 24.6381 41.3643 24.6381Z" fill="white"/>
	<path d="M43.1739 33.8638C43.0943 33.8638 43.0136 33.8485 42.9364 33.8149L41.1268 33.0395C40.8203 32.9081 40.6784 32.5533 40.8097 32.2475C40.9405 31.9405 41.2977 31.7978 41.6017 31.9304L43.4114 32.7059C43.7178 32.8373 43.8598 33.1921 43.7284 33.4979C43.6306 33.7271 43.4079 33.8638 43.1739 33.8638Z" fill="white"/>
	<path d="M34.0722 36.7393C34.3241 36.8486 34.5461 36.947 34.7226 37.0272V19.4902C34.4259 19.6252 34.0125 19.8071 33.5157 20.0164V29.1723C33.5157 29.9042 32.8725 30.4685 32.1475 30.3682C28.8997 29.9189 23.4337 29.2738 17.078 28.9786C16.4734 28.9504 16.0166 28.7713 16.0166 28.556V30.8108C16.0166 31.4204 16.4728 31.9282 17.0773 32.0078C24.4391 32.9767 30.6075 35.2753 33.5177 36.5017C33.5916 36.533 33.9661 36.693 34.0722 36.7393Z" fill="white"/>
	<defs>
	<linearGradient id="paint0_linear_484_249" x1="30" y1="0" x2="30" y2="60" gradientUnits="userSpaceOnUse">
	<stop stop-color="white"/>
	<stop offset="1" stop-color="white" stop-opacity="0.12"/>
	</linearGradient>
	</defs>
	</svg>
	